# xmcd
#
# Track frame offsets:
#	150
#	17773
#	34903
#	50843
#	73630
#	92688
#	112863
#	132155
#	148000
#	165585
#	184520
#	200978
#
# Disc length: 2985 seconds
#
# Revision: 4
# Processed by: cddbd v1.5.2PL0 Copyright (c) Steve Scherf et al.
# Submitted via: EasyCDDAExtractor 15.3.0.1
#
DISCID=aa0ba70c
DTITLE=Yuri - Obsesiones
DYEAR=1992
DGENRE=Latin
TTITLE0=Decir Adios (A Traves De Los Años) (As Time Goes By)
TTITLE1=Asi Es La Vida
TTITLE2=Como Te Ame (I'll Never Love This Way Again)
TTITLE3=Por Vivir
TTITLE4=La Mujer Que Soy
TTITLE5=Quimica Perfecta (Duo Con Luis Enrique)
TTITLE6=Yo Te Amare
TTITLE7=Este Es Mi Chico
TTITLE8=Para Quererte Mas
TTITLE9=Poligamia
TTITLE10=Nadie Va A Extrañarte Mas
TTITLE11=Perdida
EXTD=
EXTT0=
EXTT1=
EXTT2=
EXTT3=
EXTT4=
EXTT5=
EXTT6=
EXTT7=
EXTT8=
EXTT9=
EXTT10=
EXTT11=
PLAYORDER=
